<svg width="22" height="19" viewBox="0 0 22 19" fill="none" xmlns="http://www.w3.org/2000/svg">
<path d="M21.18 16.4231L12.1942 0.859317C11.5328 -0.28623 9.88031 -0.286648 9.21868 0.859317L0.232885 16.4231C-0.428489 17.5686 0.397413 19 1.72066 19H19.6922C21.015 19 21.8416 17.5691 21.18 16.4231ZM19.6922 17.4257H1.72066C1.609 17.4257 1.54028 17.3071 1.59624 17.2102L10.582 1.64645C10.6378 1.54972 10.7748 1.54951 10.8308 1.64645L19.8166 17.2102C19.8724 17.307 19.8041 17.4257 19.6922 17.4257Z" fill="#00498D"/>
<path d="M10.7051 6.53021C10.2704 6.53021 9.91797 6.88265 9.91797 7.31734V11.8295C9.91797 12.2642 10.2704 12.6167 10.7051 12.6167C11.1398 12.6167 11.4922 12.2642 11.4922 11.8295V7.31734C11.4923 6.88265 11.1398 6.53021 10.7051 6.53021Z" fill="#00498D"/>
<path d="M10.7051 13.6393C10.2704 13.6393 9.91797 13.9918 9.91797 14.4265V14.8965C9.91797 15.3312 10.2704 15.6836 10.7051 15.6836C11.1398 15.6836 11.4922 15.3312 11.4922 14.8965V14.4265C11.4923 13.9917 11.1398 13.6393 10.7051 13.6393Z" fill="#00498D"/>
</svg>
