<svg width="19" height="16" viewBox="0 0 19 16" fill="none" xmlns="http://www.w3.org/2000/svg">
<path d="M15.4035 7.3996C17.3508 5.83329 17.5103 3.15114 15.7597 1.40884C14.1541 -0.189136 11.4667 -0.460606 9.50337 0.776893C7.3631 -0.574587 4.40362 -0.117773 2.89314 1.79717C1.50715 3.55431 1.80933 5.96132 3.59645 7.39957C1.3759 8.44688 -0.0100049 10.5117 5.43909e-05 12.7576V14.579C5.43909e-05 14.9143 0.303859 15.1861 0.678636 15.1861H18.3214C18.6962 15.1861 19 14.9143 19 14.579V12.7576C19.01 10.5117 17.6241 8.44688 15.4035 7.3996ZM12.2142 1.22193C14.0854 1.22008 15.604 2.57579 15.6061 4.25001C15.6076 5.44403 14.8256 6.5276 13.6087 7.01767C13.5565 7.03891 13.5042 7.05834 13.4513 7.0784C13.2838 7.13884 13.1111 7.18694 12.9349 7.2223C12.901 7.22899 12.867 7.23262 12.8324 7.2387C12.6355 7.27246 12.4357 7.29053 12.2353 7.29274C12.145 7.29274 12.0541 7.28665 11.9638 7.2794C11.9299 7.2794 11.896 7.2794 11.862 7.27331C11.4764 7.23269 11.1012 7.13375 10.7526 6.98068C10.7397 6.9752 10.7248 6.9758 10.7119 6.97096C10.644 6.94183 10.5762 6.91632 10.5158 6.88352C10.5212 6.87744 10.5246 6.87079 10.53 6.8647C10.8412 6.50697 11.0865 6.10711 11.2567 5.68018L11.2778 5.62916C11.3552 5.42525 11.4153 5.21643 11.4576 5.0044C11.4637 4.97345 11.4685 4.94368 11.4739 4.91031C11.5132 4.69448 11.5338 4.4763 11.5357 4.25762C11.5337 4.03937 11.5131 3.82158 11.4739 3.60614C11.4685 3.57459 11.4637 3.54542 11.4576 3.51205C11.4153 3.30006 11.3552 3.0912 11.2778 2.88728L11.2567 2.83627C11.0865 2.40934 10.8411 2.00948 10.53 1.65174C10.5246 1.64566 10.5212 1.63901 10.5158 1.63292C11.0313 1.36384 11.6174 1.22197 12.2142 1.22193ZM3.39288 4.25765C3.38807 2.58543 4.89922 1.22634 6.76818 1.22204C7.64424 1.22001 8.48707 1.52207 9.11933 2.06466C9.1587 2.09867 9.19738 2.13264 9.23535 2.16786C9.35189 2.27711 9.45936 2.39379 9.55701 2.51695C9.58687 2.55459 9.61403 2.59468 9.64182 2.63353C9.73664 2.76413 9.8199 2.90116 9.89083 3.04335C9.90781 3.07796 9.92069 3.11318 9.9356 3.14776C10.0071 3.30504 10.0634 3.46754 10.1039 3.63346C10.1087 3.65168 10.11 3.66989 10.1141 3.68871C10.2 4.06569 10.2 4.45435 10.1141 4.83133C10.11 4.85015 10.1086 4.86836 10.1039 4.88658C10.0635 5.0525 10.0072 5.215 9.9356 5.37228C9.92069 5.40689 9.90777 5.44211 9.89083 5.47669C9.81982 5.61867 9.73657 5.75549 9.64182 5.8859C9.61399 5.92475 9.58687 5.96484 9.55701 6.00248C9.4594 6.12568 9.35189 6.24233 9.23535 6.35158C9.19734 6.38679 9.15866 6.4208 9.11933 6.45478C8.84459 6.68904 8.52783 6.88032 8.18223 7.02063C8.12729 7.04307 8.07162 7.06374 8.01532 7.08135C7.85175 7.13945 7.68345 7.18612 7.51184 7.22098C7.4691 7.22949 7.42497 7.23432 7.38155 7.24101C7.1973 7.27171 7.01047 7.28854 6.82308 7.29142H6.74845C6.56107 7.28858 6.37423 7.27171 6.18999 7.24101C6.14657 7.23432 6.10244 7.22949 6.05969 7.22098C5.88809 7.18612 5.71975 7.13945 5.55621 7.08135C5.49988 7.06132 5.44425 7.04069 5.3893 7.02063C4.17528 6.5302 3.39443 5.44944 3.39288 4.25765ZM12.2142 13.9719H1.35718V12.7576C1.34724 10.7002 2.79601 8.86332 4.96578 8.18221C6.13059 8.61611 7.44079 8.61611 8.60564 8.18221C8.83219 8.25628 9.05297 8.34368 9.26656 8.4439C9.40771 8.50886 9.538 8.58292 9.67371 8.65759C9.76193 8.70676 9.85147 8.75475 9.93632 8.80878C10.0673 8.89196 10.1908 8.98242 10.3122 9.07531C10.3903 9.13604 10.4676 9.19673 10.5409 9.25745C10.6529 9.35215 10.758 9.45233 10.8591 9.55496C10.9317 9.62903 11.0023 9.7043 11.0695 9.78203C11.1584 9.88403 11.2432 9.98847 11.3219 10.0959C11.3898 10.187 11.4502 10.2817 11.5099 10.3764C11.5778 10.4808 11.6402 10.5853 11.6972 10.694C11.7542 10.8026 11.8044 10.9216 11.8532 11.0376C11.896 11.1384 11.9414 11.2386 11.9767 11.3412C12.0242 11.482 12.0575 11.6277 12.0907 11.7734C12.1111 11.8596 12.1375 11.944 12.1525 12.0315C12.1926 12.2718 12.2133 12.5145 12.2142 12.7576V13.9719H12.2142ZM17.6428 13.9719H13.5714V12.7576C13.5714 12.5676 13.5592 12.3793 13.5402 12.193C13.5347 12.1383 13.5253 12.0843 13.5185 12.0296C13.5002 11.8955 13.4791 11.7625 13.4506 11.6307C13.4384 11.5745 13.4255 11.518 13.4119 11.4613C13.3794 11.3261 13.3416 11.1922 13.2986 11.0594C13.2844 11.0157 13.2715 10.9714 13.2565 10.9283C13.0665 10.3848 12.7912 9.86827 12.4389 9.39406L12.4124 9.35944C12.2957 9.20441 12.1711 9.05446 12.0385 8.90957L12.0338 8.90409C11.8981 8.75354 11.7508 8.60718 11.5961 8.46876C11.6049 8.46876 11.6144 8.46876 11.6239 8.46876C11.8154 8.49128 12.0082 8.50345 12.2014 8.50519H12.2387C12.4175 8.5038 12.596 8.49345 12.7735 8.47424C12.8291 8.46816 12.8841 8.45905 12.9397 8.45115C13.084 8.43134 13.2265 8.40562 13.3672 8.37406C13.4072 8.36496 13.4479 8.35645 13.4887 8.34614C13.6733 8.30121 13.8546 8.24603 14.0315 8.181C16.2029 8.86143 17.6529 10.6991 17.6429 12.7576V13.9719H17.6428Z" fill="#00498D"/>
</svg>
