<svg width="18" height="17" viewBox="0 0 18 17" fill="none" xmlns="http://www.w3.org/2000/svg">
<path d="M8.27531 2.07106V7.33994L4.67085 5.6851L0 7.81181V16.1451H17.5807V2.06999L12.9099 0L8.27531 2.07106ZM5.18494 15.1993H4.15482V14.2534H5.18494V15.1993ZM6.21507 15.1993V13.3075H3.1247V15.1993H1.03012V8.39856L4.66892 6.74177L8.27531 8.39749V15.1993H6.21507ZM13.4259 15.1993H12.3958V14.2534H13.4259V15.1993ZM16.5506 2.66375V15.1993H14.456V13.3075H11.3657V15.1993H9.30543V2.66267L12.9118 1.05112L16.5506 2.66375Z" fill="#00498D"/>
<path d="M10.3359 3.84863H11.3661V4.79451H10.3359V3.84863Z" fill="#00498D"/>
<path d="M14.457 3.84863H15.4871V4.79451H14.457V3.84863Z" fill="#00498D"/>
<path d="M12.3945 3.84863H13.4246V4.79451H12.3945V3.84863Z" fill="#00498D"/>
<path d="M10.3359 5.74048H11.3661V6.68636H10.3359V5.74048Z" fill="#00498D"/>
<path d="M12.3945 5.74048H13.4246V6.68636H12.3945V5.74048Z" fill="#00498D"/>
<path d="M14.457 5.74048H15.4871V6.68636H14.457V5.74048Z" fill="#00498D"/>
<path d="M10.3359 7.63208H11.3661V8.57795H10.3359V7.63208Z" fill="#00498D"/>
<path d="M14.457 7.63208H15.4871V8.57795H14.457V7.63208Z" fill="#00498D"/>
<path d="M12.3945 7.63208H13.4246V8.57795H12.3945V7.63208Z" fill="#00498D"/>
<path d="M10.3359 9.52393H11.3661V10.4698H10.3359V9.52393Z" fill="#00498D"/>
<path d="M12.3945 9.52393H13.4246V10.4698H12.3945V9.52393Z" fill="#00498D"/>
<path d="M14.457 9.52393H15.4871V10.4698H14.457V9.52393Z" fill="#00498D"/>
<path d="M10.3359 11.4158H11.3661V12.3616H10.3359V11.4158Z" fill="#00498D"/>
<path d="M14.457 11.4158H15.4871V12.3616H14.457V11.4158Z" fill="#00498D"/>
<path d="M12.3945 11.4158H13.4246V12.3616H12.3945V11.4158Z" fill="#00498D"/>
<path d="M2.09375 9.52393H3.12387V10.4698H2.09375V9.52393Z" fill="#00498D"/>
<path d="M4.15625 9.52393H5.18637V10.4698H4.15625V9.52393Z" fill="#00498D"/>
<path d="M6.21484 9.52393H7.24496V10.4698H6.21484V9.52393Z" fill="#00498D"/>
<path d="M2.09375 11.4158H3.12387V12.3616H2.09375V11.4158Z" fill="#00498D"/>
<path d="M6.21484 11.4158H7.24496V12.3616H6.21484V11.4158Z" fill="#00498D"/>
<path d="M4.15625 11.4158H5.18637V12.3616H4.15625V11.4158Z" fill="#00498D"/>
</svg>
