<svg width="21" height="18" viewBox="0 0 21 18" fill="none" xmlns="http://www.w3.org/2000/svg">
<g clip-path="url(#clip0)">
<path d="M10.5625 9C10.2003 9 9.90625 8.748 9.90625 8.4375V7.875H3.78125V8.4375C3.78125 8.748 3.48725 9 3.125 9C2.76275 9 2.46875 8.748 2.46875 8.4375V7.3125C2.46875 7.002 2.76275 6.75 3.125 6.75H10.5625C10.9248 6.75 11.2188 7.002 11.2188 7.3125V8.4375C11.2188 8.748 10.9248 9 10.5625 9Z" fill="#00498D"/>
<path d="M6.83203 14.0625C6.46978 14.0625 6.17578 13.8105 6.17578 13.5V7.5C6.17578 7.1895 6.46978 6.9375 6.83203 6.9375C7.19428 6.9375 7.48828 7.1895 7.48828 7.5V13.5C7.48828 13.8105 7.19428 14.0625 6.83203 14.0625Z" fill="#00498D"/>
<path d="M7.78515 14.25H5.59766C5.23541 14.25 4.94141 13.998 4.94141 13.6875C4.94141 13.377 5.23541 13.125 5.59766 13.125H7.78515C8.1474 13.125 8.4414 13.377 8.4414 13.6875C8.4414 13.998 8.1474 14.25 7.78515 14.25Z" fill="#00498D"/>
<path d="M17.7188 7.875H13.7812C13.419 7.875 13.125 7.623 13.125 7.3125C13.125 7.002 13.419 6.75 13.7812 6.75H17.7188C18.081 6.75 18.375 7.002 18.375 7.3125C18.375 7.623 18.081 7.875 17.7188 7.875Z" fill="#00498D"/>
<path d="M17.7188 10.875H13.7812C13.419 10.875 13.125 10.623 13.125 10.3125C13.125 10.002 13.419 9.75 13.7812 9.75H17.7188C18.081 9.75 18.375 10.002 18.375 10.3125C18.375 10.623 18.081 10.875 17.7188 10.875Z" fill="#00498D"/>
<path d="M17.7188 13.875H13.7812C13.419 13.875 13.125 13.623 13.125 13.3125C13.125 13.002 13.419 12.75 13.7812 12.75H17.7188C18.081 12.75 18.375 13.002 18.375 13.3125C18.375 13.623 18.081 13.875 17.7188 13.875Z" fill="#00498D"/>
<path d="M18.5938 17.25H2.40625C1.07888 17.25 0 16.3252 0 15.1875V2.8125C0 1.67475 1.07888 0.75 2.40625 0.75H18.5938C19.9211 0.75 21 1.67475 21 2.8125V15.1875C21 16.3252 19.9211 17.25 18.5938 17.25ZM2.40625 1.875C1.80338 1.875 1.3125 2.29575 1.3125 2.8125V15.1875C1.3125 15.7042 1.80338 16.125 2.40625 16.125H18.5938C19.1966 16.125 19.6875 15.7042 19.6875 15.1875V2.8125C19.6875 2.29575 19.1966 1.875 18.5938 1.875H2.40625Z" fill="#00498D"/>
<path d="M20.3438 4.5H0.65625C0.294 4.5 0 4.248 0 3.9375C0 3.627 0.294 3.375 0.65625 3.375H20.3438C20.706 3.375 21 3.627 21 3.9375C21 4.248 20.706 4.5 20.3438 4.5Z" fill="#00498D"/>
</g>
<defs>
<clipPath id="clip0">
<rect width="21" height="18" fill="white"/>
</clipPath>
</defs>
</svg>
