<svg width="21" height="17" viewBox="0 0 21 17" fill="none" xmlns="http://www.w3.org/2000/svg">
<path d="M7.9375 6.75H3.125C2.76275 6.75 2.46875 6.498 2.46875 6.1875C2.46875 5.877 2.76275 5.625 3.125 5.625H7.9375C8.29975 5.625 8.59375 5.877 8.59375 6.1875C8.59375 6.498 8.29975 6.75 7.9375 6.75Z" fill="#00498D"/>
<path d="M7.9375 9.00001H3.125C2.76275 9.00001 2.46875 8.74801 2.46875 8.4375C2.46875 8.127 2.76275 7.875 3.125 7.875H7.9375C8.29975 7.875 8.59375 8.127 8.59375 8.4375C8.59375 8.74801 8.29975 9.00001 7.9375 9.00001Z" fill="#00498D"/>
<path d="M7.9375 11.25H3.125C2.76275 11.25 2.46875 10.998 2.46875 10.6875C2.46875 10.377 2.76275 10.125 3.125 10.125H7.9375C8.29975 10.125 8.59375 10.377 8.59375 10.6875C8.59375 10.998 8.29975 11.25 7.9375 11.25Z" fill="#00498D"/>
<path d="M7.9375 13.5H3.125C2.76275 13.5 2.46875 13.248 2.46875 12.9375C2.46875 12.627 2.76275 12.375 3.125 12.375H7.9375C8.29975 12.375 8.59375 12.627 8.59375 12.9375C8.59375 13.248 8.29975 13.5 7.9375 13.5Z" fill="#00498D"/>
<path d="M18.5938 16.5H2.40625C1.07888 16.5 0 15.5752 0 14.4375V2.0625C0 0.924749 1.07888 0 2.40625 0H18.5938C19.9211 0 21 0.924749 21 2.0625V14.4375C21 15.5752 19.9211 16.5 18.5938 16.5ZM2.40625 1.125C1.80338 1.125 1.3125 1.54575 1.3125 2.0625V14.4375C1.3125 14.9542 1.80338 15.375 2.40625 15.375H18.5938C19.1966 15.375 19.6875 14.9542 19.6875 14.4375V2.0625C19.6875 1.54575 19.1966 1.125 18.5938 1.125H2.40625Z" fill="#00498D"/>
<path d="M20.3438 3.75H0.65625C0.294 3.75 0 3.498 0 3.1875C0 2.877 0.294 2.625 0.65625 2.625H20.3438C20.706 2.625 21 2.877 21 3.1875C21 3.498 20.706 3.75 20.3438 3.75Z" fill="#00498D"/>
<path d="M11.156 12.8632C10.988 12.8632 10.82 12.8085 10.6923 12.6982C10.4359 12.4785 10.4359 12.1222 10.6923 11.9025L12.0398 10.7475C12.6392 10.2345 13.6122 10.236 14.2098 10.7475C14.2579 10.7895 14.3997 10.8825 14.5379 10.734L14.9929 10.2465C15.5687 9.61725 16.8015 9.61275 17.386 10.251L18.2304 11.154C18.457 11.3962 18.4124 11.7502 18.1289 11.9445C17.8463 12.1402 17.4333 12.1005 17.2067 11.8575L16.3579 10.95C16.2407 10.8225 16.1295 10.827 16.0219 10.9455L15.5625 11.4375C15.0183 12.0202 13.8983 12.0712 13.2823 11.544C13.1965 11.4712 13.053 11.4712 12.9673 11.544L11.6198 12.699C11.492 12.8085 11.324 12.8632 11.156 12.8632Z" fill="#00498D"/>
<path d="M16.8438 14.25H12.0312C11.1869 14.25 10.5 13.6612 10.5 12.9375V6.5625C10.5 5.83875 11.1869 5.25 12.0312 5.25H16.8438C17.6881 5.25 18.375 5.83875 18.375 6.5625V12.9375C18.375 13.6612 17.6881 14.25 16.8438 14.25ZM12.0312 6.375C11.9105 6.375 11.8125 6.459 11.8125 6.5625V12.9375C11.8125 13.041 11.9105 13.125 12.0312 13.125H16.8438C16.9645 13.125 17.0625 13.041 17.0625 12.9375V6.5625C17.0625 6.459 16.9645 6.375 16.8438 6.375H12.0312Z" fill="#00498D"/>
</svg>
