<svg width="21" height="19" viewBox="0 0 21 19" fill="none" xmlns="http://www.w3.org/2000/svg">
<path d="M18.7441 0C17.6431 0 16.7243 0.717584 16.5277 1.66291C12.4132 3.24503 5.97245 3.26562 5.90625 3.26562H3.07617C1.37997 3.26562 0 4.51417 0 6.04883V8.7207C0 10.2554 1.37997 11.5039 3.07617 11.5039H5.40836L6.49548 16.1167C6.79129 17.4003 8.05781 18.332 9.50701 18.332C10.5605 18.332 11.3422 17.4556 11.1281 16.5278L10.6833 14.596C11.8926 14.2385 12.8416 13.3592 13.2075 12.2565C14.3613 12.4474 15.4849 12.7081 16.5279 13.1074C16.7248 14.0523 17.6434 14.7695 18.7441 14.7695C19.988 14.7695 21 13.8539 21 12.7285V2.04102C21 0.9156 19.988 0 18.7441 0ZM12.8435 11.0718C12.1638 10.9567 8.67887 10.5555 6.52148 10.4233V4.36978C8.198 4.32877 12.9126 4.10393 16.4883 2.87679V11.8957C15.3206 11.5035 14.0775 11.2539 12.8435 11.0718ZM1.23047 8.7207V6.04883C1.23047 5.12803 2.05845 4.37891 3.07617 4.37891H5.29102V10.3906H3.07617C2.05845 10.3906 1.23047 9.6415 1.23047 8.7207ZM9.50701 17.2188C8.63748 17.2188 7.8775 16.6597 7.69949 15.887L6.67718 11.5492C7.35566 11.5938 8.06613 11.6529 8.76488 11.7229L9.92361 16.7551C9.97882 16.9945 9.77735 17.2188 9.50701 17.2188ZM10.4301 13.4962L10.0528 11.8579C10.6921 11.9252 11.3362 11.9945 11.9766 12.0772C11.7117 12.7272 11.1453 13.2473 10.4301 13.4962ZM19.7695 12.7285C19.7695 13.2401 19.3095 13.6562 18.7441 13.6562C18.1787 13.6562 17.7188 13.2401 17.7188 12.7285V2.04102C17.7188 1.52946 18.1787 1.11328 18.7441 1.11328C19.3095 1.11328 19.7695 1.52946 19.7695 2.04102V12.7285Z" fill="#00498D"/>
</svg>
