<svg width="17" height="20" viewBox="0 0 17 20" fill="none" xmlns="http://www.w3.org/2000/svg">
<path d="M16.3929 19.4286H2.22619C0.998143 19.4286 0 18.4304 0 17.2024V2.22619C0 0.998143 0.998143 0 2.22619 0H14.7738C15.109 0 15.381 0.272 15.381 0.607143V3.2381H16.3929C16.728 3.2381 17 3.5101 17 3.84524V18.8214C17 19.1566 16.728 19.4286 16.3929 19.4286ZM1.21429 4.20871V17.2024C1.21429 17.7601 1.66843 18.2143 2.22619 18.2143H15.7857V4.45238H2.22619C1.8619 4.45238 1.51786 4.36495 1.21429 4.20871ZM2.22619 1.21429C1.66843 1.21429 1.21429 1.66843 1.21429 2.22619C1.21429 2.78395 1.66843 3.2381 2.22619 3.2381H14.1667V1.21429H2.22619Z" fill="#00498D"/>
<path d="M9.10733 15.3811C8.99642 15.3811 8.88714 15.3511 8.78837 15.2912L6.47637 13.8681L4.16438 15.2912C3.97657 15.407 3.74261 15.411 3.54914 15.3041C3.35647 15.1965 3.23828 14.9933 3.23828 14.7739V3.84534H4.45257V13.6875L6.15742 12.6384C6.35333 12.5186 6.59861 12.5186 6.79452 12.6384L8.49937 13.6875V3.84534H9.71447V14.7739C9.71447 14.9933 9.59628 15.1965 9.40361 15.3041C9.31133 15.3551 9.20933 15.3811 9.10733 15.3811Z" fill="#00498D"/>
</svg>
