<svg width="18" height="17" viewBox="0 0 18 17" fill="none" xmlns="http://www.w3.org/2000/svg">
<path d="M16.9528 11.5322H15.6971V9.22576C15.6971 8.9073 15.416 8.64914 15.0692 8.64914H9.41825V4.61288H12.5576C12.9044 4.61288 13.1855 4.35472 13.1855 4.03626V0.576589C13.1855 0.258158 12.9044 0 12.5576 0H5.02305C4.67627 0 4.39516 0.258158 4.39516 0.576623V4.03629C4.39516 4.35476 4.67627 4.61292 5.02305 4.61292H8.16246V8.64917H2.51151C2.16473 8.64917 1.88361 8.90733 1.88361 9.2258V11.5323H0.627895C0.281113 11.5322 0 11.7904 0 12.1088V15.5685C0 15.887 0.281113 16.1451 0.627895 16.1451H4.39519C4.74198 16.1451 5.02309 15.887 5.02309 15.5685V12.1088C5.02309 11.7904 4.74198 11.5322 4.39519 11.5322H3.1394V9.80239H8.16246V11.5322H6.9067C6.55992 11.5322 6.27881 11.7904 6.27881 12.1088V15.5685C6.27881 15.887 6.55992 16.1451 6.9067 16.1451H10.674C11.0208 16.1451 11.3019 15.887 11.3019 15.5685V12.1088C11.3019 11.7904 11.0208 11.5322 10.674 11.5322H9.41825V9.80239H14.4413V11.5322H13.1855C12.8388 11.5322 12.5576 11.7904 12.5576 12.1088V15.5685C12.5576 15.887 12.8388 16.1451 13.1855 16.1451H16.9528C17.2996 16.1451 17.5807 15.887 17.5807 15.5685V12.1088C17.5807 11.7904 17.2996 11.5322 16.9528 11.5322ZM3.7673 12.6855V14.9919H1.25575V12.6855H3.7673ZM10.0461 12.6855V14.9919H7.5346V12.6855H10.0461ZM5.65095 3.45967V1.15321H11.9298V3.45967H5.65095ZM16.3249 14.9919H13.8134V12.6854H16.3249V14.9919Z" fill="#00498D"/>
</svg>
