<svg width="20" height="18" viewBox="0 0 20 18" fill="none" xmlns="http://www.w3.org/2000/svg">
<path d="M6.61962 0H2.27668C1.07087 0 0.0898438 0.900916 0.0898438 2.00826V5.99657C0.0898438 7.10391 1.07087 8.00483 2.27668 8.00483H6.61962C7.82543 8.00483 8.80645 7.10391 8.80645 5.99657V2.00826C8.80645 0.900916 7.82543 0 6.61962 0ZM7.32906 5.99657C7.32906 6.3558 7.01079 6.64808 6.61962 6.64808H2.27668C1.8855 6.64808 1.56723 6.3558 1.56723 5.99657V2.00826C1.56723 1.64903 1.8855 1.35675 2.27668 1.35675H6.61962C7.01079 1.35675 7.32906 1.64903 7.32906 2.00826V5.99657Z" fill="#00498D"/>
<path d="M16.7857 0H12.5012C11.2793 0 10.2852 0.912958 10.2852 2.03513V5.9697C10.2852 7.09187 11.2793 8.00483 12.5012 8.00483H16.7857C18.0076 8.00483 19.0018 7.09187 19.0018 5.9697V2.03513C19.0018 0.912958 18.0076 0 16.7857 0ZM17.5244 5.9697C17.5244 6.34376 17.193 6.64808 16.7857 6.64808H12.5012C12.0939 6.64808 11.7625 6.34376 11.7625 5.9697V2.03513C11.7625 1.66107 12.0939 1.35675 12.5012 1.35675H16.7857C17.193 1.35675 17.5244 1.66107 17.5244 2.03513V5.9697Z" fill="#00498D"/>
<path d="M6.61962 9.36133H2.27668C1.07087 9.36133 0.0898438 10.2622 0.0898438 11.3696V15.3579C0.0898438 16.4652 1.07087 17.3662 2.27668 17.3662H6.61962C7.82543 17.3662 8.80645 16.4652 8.80645 15.3579V11.3696C8.80645 10.2622 7.82543 9.36133 6.61962 9.36133ZM7.32906 15.3579C7.32906 15.7171 7.01079 16.0094 6.61962 16.0094H2.27668C1.8855 16.0094 1.56723 15.7171 1.56723 15.3579V11.3696C1.56723 11.0104 1.8855 10.7181 2.27668 10.7181H6.61962C7.01079 10.7181 7.32906 11.0104 7.32906 11.3696V15.3579Z" fill="#00498D"/>
<path d="M16.7857 9.36133H12.5012C11.2793 9.36133 10.2852 10.2743 10.2852 11.3965V15.331C10.2852 16.4532 11.2793 17.3662 12.5012 17.3662H16.7857C18.0076 17.3662 19.0018 16.4532 19.0018 15.331V11.3965C19.0018 10.2743 18.0076 9.36133 16.7857 9.36133ZM17.5244 15.331C17.5244 15.7051 17.193 16.0094 16.7857 16.0094H12.5012C12.0939 16.0094 11.7625 15.7051 11.7625 15.331V11.3965C11.7625 11.0224 12.0939 10.7181 12.5012 10.7181H16.7857C17.193 10.7181 17.5244 11.0224 17.5244 11.3965V15.331Z" fill="#00498D"/>
</svg>
