<svg width="19" height="22" viewBox="0 0 19 22" fill="none" xmlns="http://www.w3.org/2000/svg">
<path d="M13.4951 9.10984C13.4951 8.65245 13.1243 8.28168 12.6669 8.28168H4.13676C3.67936 8.28168 3.30859 8.65245 3.30859 9.10984C3.30859 9.56724 3.67936 9.93801 4.13676 9.93801H12.6669C13.1243 9.93801 13.4951 9.56724 13.4951 9.10984Z" fill="#00498D"/>
<path d="M4.13676 11.5938C3.67936 11.5938 3.30859 11.9645 3.30859 12.4219C3.30859 12.8793 3.67936 13.2501 4.13676 13.2501H9.3174C9.7748 13.2501 10.1456 12.8793 10.1456 12.4219C10.1456 11.9645 9.7748 11.5938 9.3174 11.5938H4.13676Z" fill="#00498D"/>
<path d="M6.08244 19.5448H3.31267C2.39937 19.5448 1.65634 18.8017 1.65634 17.8884V3.31267C1.65634 2.39937 2.39937 1.65634 3.31267 1.65634H13.4945C14.4078 1.65634 15.1509 2.39937 15.1509 3.31267V8.4059C15.1509 8.8633 15.5216 9.23407 15.979 9.23407C16.4364 9.23407 16.8072 8.8633 16.8072 8.4059V3.31267C16.8072 1.48606 15.3211 0 13.4945 0H3.31267C1.48606 0 0 1.48606 0 3.31267V17.8884C0 19.715 1.48606 21.2011 3.31267 21.2011H6.08244C6.53983 21.2011 6.9106 20.8303 6.9106 20.3729C6.9106 19.9155 6.53983 19.5448 6.08244 19.5448Z" fill="#00498D"/>
<path d="M18.2736 11.991C17.3049 11.0223 15.7287 11.0223 14.7607 11.9904L10.2139 16.5271C10.1173 16.6234 10.0461 16.7421 10.0064 16.8726L9.01624 20.1325C8.92846 20.4215 9.00494 20.7354 9.21587 20.9516C9.37389 21.1135 9.58855 21.2014 9.80872 21.2014C9.88238 21.2014 9.95675 21.1916 10.0298 21.1713L13.3724 20.2454C13.51 20.2073 13.6354 20.1343 13.7364 20.0334L18.2737 15.5047C19.2424 14.536 19.2424 12.9598 18.2736 11.991ZM12.7204 18.7073L11.0388 19.1731L11.5309 17.5529L14.5988 14.4918L15.7702 15.6632L12.7204 18.7073ZM17.1031 14.333L16.9426 14.4931L15.7714 13.3219L15.9313 13.1623C16.2542 12.8394 16.7796 12.8394 17.1025 13.1623C17.4254 13.4852 17.4254 14.0106 17.1031 14.333Z" fill="#00498D"/>
<path d="M12.6669 4.96967H4.13676C3.67936 4.96967 3.30859 5.34044 3.30859 5.79783C3.30859 6.25523 3.67936 6.626 4.13676 6.626H12.6669C13.1243 6.626 13.4951 6.25523 13.4951 5.79783C13.4951 5.34044 13.1243 4.96967 12.6669 4.96967Z" fill="#00498D"/>
</svg>
