<svg width="22" height="20" viewBox="0 0 22 20" fill="none" xmlns="http://www.w3.org/2000/svg">
<path d="M19.6367 3.125H18.9922V1.75781C18.9922 0.788555 18.1248 0 17.0586 0C15.9924 0 15.125 0.788555 15.125 1.75781V2.2377C15.125 2.84488 14.6765 3.38547 14.0342 3.55227L13.4062 3.71539V3.71094C13.4062 3.38734 13.1177 3.125 12.7617 3.125H10.1836C9.82764 3.125 9.53906 3.38734 9.53906 3.71094V6.32812H1.93359C0.86741 6.32812 0 7.11668 0 8.08594V19.4141C0 19.6302 0.13084 19.8287 0.340398 19.9307C0.435703 19.9771 0.540203 20 0.644488 20C0.769527 20 0.894223 19.967 1.00203 19.9016L3.41782 18.4375H15.6836C16.7498 18.4375 17.6172 17.6489 17.6172 16.6797V10.5469H19.6367C20.9398 10.5469 22 9.58309 22 8.39844V5.27344C22 4.08879 20.9398 3.125 19.6367 3.125ZM10.8281 4.29688H12.1172V9.375H10.8281V4.29688ZM16.3281 16.6797C16.3281 17.0028 16.039 17.2656 15.6836 17.2656H3.22266C3.09543 17.2656 2.97103 17.2999 2.86516 17.3641L1.28906 18.3193V8.08594C1.28906 7.76285 1.5782 7.5 1.93359 7.5H9.53906V9.96094C9.53906 10.2845 9.82764 10.5469 10.1836 10.5469H12.7617C13.0928 10.5469 13.3653 10.3198 13.4018 10.0276C13.976 10.3605 14.6511 10.5469 15.3532 10.5469H16.3281V16.6797ZM20.7109 8.39844C20.7109 8.93691 20.229 9.375 19.6367 9.375H15.3532C14.5695 9.375 13.8377 9.01559 13.4062 8.42789V4.93418L14.3883 4.6791C15.5811 4.3693 16.4141 3.36535 16.4141 2.2377V1.75781C16.4141 1.43473 16.7032 1.17188 17.0586 1.17188C17.414 1.17188 17.7031 1.43473 17.7031 1.75781V3.71094C17.7031 4.03453 17.9917 4.29688 18.3477 4.29688H19.6367C20.229 4.29688 20.7109 4.73496 20.7109 5.27344V8.39844Z" fill="#00498D"/>
<path d="M3.22266 11.0156H7.51953C7.87548 11.0156 8.16406 10.7533 8.16406 10.4297C8.16406 10.1061 7.87548 9.84375 7.51953 9.84375H3.22266C2.8667 9.84375 2.57812 10.1061 2.57812 10.4297C2.57812 10.7533 2.8667 11.0156 3.22266 11.0156Z" fill="#00498D"/>
<path d="M14.3945 12.1875H3.22266C2.8667 12.1875 2.57812 12.4498 2.57812 12.7734C2.57812 13.097 2.8667 13.3594 3.22266 13.3594H14.3945C14.7505 13.3594 15.0391 13.097 15.0391 12.7734C15.0391 12.4498 14.7505 12.1875 14.3945 12.1875Z" fill="#00498D"/>
<path d="M14.3945 14.5312H3.22266C2.8667 14.5312 2.57812 14.7936 2.57812 15.1172C2.57812 15.4408 2.8667 15.7031 3.22266 15.7031H14.3945C14.7505 15.7031 15.0391 15.4408 15.0391 15.1172C15.0391 14.7936 14.7505 14.5312 14.3945 14.5312Z" fill="#00498D"/>
</svg>
