<svg width="21" height="21" viewBox="0 0 21 21" fill="none" xmlns="http://www.w3.org/2000/svg">
<path d="M21 12.8628V8.13717L19.0141 7.75171C18.8675 7.29853 18.6844 6.85711 18.4669 6.4326L19.6012 4.75543L16.2631 1.41049L14.5837 2.54133C14.1544 2.32025 13.7074 2.13437 13.2483 1.98585L12.8628 0H8.13717L7.75167 1.98585C7.29853 2.13248 6.85703 2.31562 6.43256 2.53308L4.75543 1.39876L1.41049 4.73689L2.54133 6.41628C2.32025 6.84563 2.13437 7.29258 1.98585 7.75167L0 8.13717V12.8629L1.98585 13.2483C2.13248 13.7015 2.31562 14.1429 2.53308 14.5675L1.39876 16.2446L4.73694 19.5896L6.41628 18.4587C6.84563 18.6798 7.29254 18.8656 7.75167 19.0141L8.13717 21H12.8628L13.2483 19.0141C13.7015 18.8675 14.1429 18.6844 14.5674 18.4669L16.2446 19.6012L19.5896 16.2631L18.4587 14.5837C18.6797 14.1544 18.8656 13.7075 19.0141 13.2483L21 12.8628ZM18.0402 12.1839L17.9387 12.5515C17.769 13.1661 17.5224 13.7588 17.2059 14.3131L17.0164 14.6449L18.0022 16.1088L16.0935 18.0136L14.6315 17.0248L14.2993 17.2136C13.7486 17.5266 13.1605 17.7706 12.5514 17.9387L12.1839 18.0402L11.8483 19.7695H9.15173L8.81602 18.0402L8.44848 17.9387C7.83398 17.769 7.24131 17.5225 6.6869 17.2059L6.35508 17.0164L4.8912 18.0022L2.98643 16.0935L3.97523 14.6316L3.78644 14.2994C3.47345 13.7486 3.22945 13.1606 3.06128 12.5515L2.95977 12.1839L1.23047 11.8483V9.15173L2.95977 8.81606L3.06128 8.44852C3.23092 7.83398 3.47751 7.24131 3.79407 6.68686L3.98352 6.35508L2.99775 4.8912L4.90641 2.98639L6.36837 3.97519L6.70056 3.7864C7.25132 3.47341 7.8394 3.22941 8.44844 3.06124L8.81598 2.95977L9.15173 1.23047H11.8483L12.184 2.95981L12.5515 3.06128C13.166 3.23096 13.7587 3.47751 14.3131 3.79411L14.645 3.9836L16.1088 2.99783L18.0136 4.90649L17.0248 6.36845L17.2136 6.70064C17.5266 7.2514 17.7706 7.83948 17.9388 8.44856L18.0403 8.8161L19.7695 9.15173V11.8483L18.0402 12.1839Z" fill="#00498D"/>
<path d="M10.5846 3.97791C6.98827 3.97791 4.0625 6.90367 4.0625 10.5C4.0625 14.0963 6.98827 17.022 10.5846 17.022C14.1809 17.022 17.1066 14.0963 17.1066 10.5C17.1066 6.90367 14.1808 3.97791 10.5846 3.97791ZM10.5846 15.7916C7.66675 15.7916 5.29297 13.4178 5.29297 10.5C5.29297 7.58215 7.66675 5.20837 10.5846 5.20837C13.5024 5.20837 15.8761 7.58215 15.8761 10.5C15.8761 13.4178 13.5023 15.7916 10.5846 15.7916Z" fill="#00498D"/>
<path d="M12.3176 9.8919C12.5289 9.56755 12.6523 9.18089 12.6523 8.76573C12.6523 7.62492 11.7241 6.69678 10.5833 6.69678C9.44249 6.69678 8.51435 7.62492 8.51435 8.76573C8.51435 9.182 8.63834 9.56968 8.85076 9.89452C7.90371 10.3593 7.25 11.3334 7.25 12.4576V13.0728H13.9235V12.4576C13.9235 11.3313 13.2674 10.3556 12.3176 9.8919ZM10.5833 7.92721C11.0457 7.92721 11.4218 8.30336 11.4218 8.76569C11.4218 9.22802 11.0457 9.60417 10.5833 9.60417C10.121 9.60417 9.74481 9.22802 9.74481 8.76569C9.74481 8.30336 10.121 7.92721 10.5833 7.92721ZM8.60155 11.8423C8.8444 11.2516 9.42608 10.8347 10.1033 10.8347H11.0702C11.7474 10.8347 12.329 11.2516 12.5719 11.8423H8.60155Z" fill="#00498D"/>
</svg>
