<svg width="15" height="15" viewBox="0 0 15 15" fill="none" xmlns="http://www.w3.org/2000/svg">
<path d="M8.39583 3.24809H5.82031V7.19423H8.41375C8.96303 7.21866 9.49977 7.02537 9.90736 6.65635C10.315 6.28734 10.5605 5.7724 10.5906 5.2234C10.5769 4.94936 10.5091 4.68074 10.3912 4.43297C10.2734 4.1852 10.1077 3.96316 9.90376 3.7796C9.69981 3.59605 9.4616 3.45461 9.20283 3.36339C8.94405 3.27218 8.6698 3.23299 8.39583 3.24809Z" fill="#00498D"/>
<path d="M7.16667 0C5.74924 0 4.36364 0.420318 3.18508 1.2078C2.00653 1.99528 1.08796 3.11456 0.545533 4.4241C0.00310518 5.73364 -0.138819 7.17462 0.137709 8.56481C0.414236 9.95501 1.09679 11.232 2.09907 12.2343C3.10135 13.2365 4.37833 13.9191 5.76852 14.1956C7.15872 14.4722 8.5997 14.3302 9.90923 13.7878C11.2188 13.2454 12.3381 12.3268 13.1255 11.1483C13.913 9.9697 14.3333 8.5841 14.3333 7.16667C14.3333 5.26595 13.5783 3.44308 12.2343 2.09907C10.8903 0.755057 9.06739 0 7.16667 0ZM8.39844 8.31333H5.82292V8.95833H9.53615C9.65494 8.95833 9.76887 9.00552 9.85287 9.08952C9.93687 9.17352 9.98407 9.28745 9.98407 9.40625C9.98407 9.52504 9.93687 9.63897 9.85287 9.72297C9.76887 9.80698 9.65494 9.85417 9.53615 9.85417H5.82292V12.0938C5.82292 12.2422 5.76393 12.3847 5.65893 12.4897C5.55393 12.5947 5.41152 12.6536 5.26302 12.6536C5.11453 12.6536 4.97212 12.5947 4.86712 12.4897C4.76212 12.3847 4.70313 12.2422 4.70313 12.0938V9.85417H4.14323C4.02444 9.85417 3.91051 9.80698 3.82651 9.72297C3.74251 9.63897 3.69532 9.52504 3.69532 9.40625C3.69532 9.28745 3.74251 9.17352 3.82651 9.08952C3.91051 9.00552 4.02444 8.95833 4.14323 8.95833H4.68521V8.31333H4.14323C3.99474 8.31333 3.85233 8.25434 3.74733 8.14934C3.64233 8.04434 3.58334 7.90193 3.58334 7.75344C3.58334 7.60494 3.64233 7.46253 3.74733 7.35753C3.85233 7.25253 3.99474 7.19354 4.14323 7.19354H4.68521V2.6875C4.68521 2.53901 4.7442 2.39659 4.8492 2.29159C4.9542 2.18659 5.09661 2.1276 5.24511 2.1276H8.38052C9.22733 2.10103 10.0501 2.41156 10.6681 2.991C11.2862 3.57045 11.6491 4.37147 11.6772 5.21823C11.6491 6.06218 11.2888 6.86089 10.6748 7.44054C10.0607 8.02019 9.24261 8.33388 8.39844 8.31333Z" fill="#00498D"/>
</svg>
